<svg width="15" height="14" viewBox="0 0 15 14" fill="none" xmlns="http://www.w3.org/2000/svg">
<path d="M13.5 1.53125H1.5V12.0312L8.469 5.06075C8.6096 4.92015 8.8004 4.84115 8.9992 4.84115C9.1981 4.84115 9.3889 4.92015 9.5295 5.06075L13.5 9.03875V1.53125ZM0 0.776C0.00137 0.57903 0.0801799 0.39051 0.21938 0.25116C0.35859 0.11181 0.54704 0.03282 0.744 0.03125H14.256C14.667 0.03125 15 0.365 15 0.776V12.7864C14.9986 12.9834 14.9198 13.1719 14.7806 13.3113C14.6414 13.4507 14.453 13.5296 14.256 13.5312H0.744C0.54661 13.531 0.35737 13.4525 0.21787 13.3129C0.0783602 13.1733 0 12.9838 0 12.7864V0.776ZM4.5 6.03125C4.10218 6.03125 3.72064 5.87325 3.43934 5.59195C3.15804 5.31065 3 4.92905 3 4.53125C3 4.13343 3.15804 3.75189 3.43934 3.47059C3.72064 3.18929 4.10218 3.03125 4.5 3.03125C4.89782 3.03125 5.27936 3.18929 5.5607 3.47059C5.842 3.75189 6 4.13343 6 4.53125C6 4.92905 5.842 5.31065 5.5607 5.59195C5.27936 5.87325 4.89782 6.03125 4.5 6.03125Z" fill="white"/>
</svg>
