<svg width="97" height="32" viewBox="0 0 97 32" fill="none" xmlns="http://www.w3.org/2000/svg">
<path d="M15.9993 2.66602C23.3593 2.66602 29.3327 8.63935 29.3327 15.9993C29.3327 23.3593 23.3593 29.3327 15.9993 29.3327C8.63935 29.3327 2.66602 23.3593 2.66602 15.9993C2.66602 8.63935 8.63935 2.66602 15.9993 2.66602ZM15.9993 26.666C21.902 26.666 26.666 21.902 26.666 15.9993C26.666 10.0967 21.902 5.33268 15.9993 5.33268C14.5981 5.33093 13.2102 5.60563 11.9153 6.14106C10.6204 6.67649 9.4438 7.46212 8.45296 8.45296C7.46212 9.4438 6.67649 10.6204 6.14106 11.9153C5.60563 13.2102 5.33093 14.5981 5.33268 15.9993C5.33268 21.902 10.0967 26.666 15.9993 26.666ZM15.9993 23.9993C11.5727 23.9993 7.99935 20.426 7.99935 15.9993C7.99935 11.5727 11.5727 7.99935 15.9993 7.99935C20.426 7.99935 23.9993 11.5727 23.9993 15.9993C23.9993 20.426 20.426 23.9993 15.9993 23.9993ZM15.9993 13.3327C14.5327 13.3327 13.3327 14.5327 13.3327 15.9993C13.3327 17.466 14.5327 18.666 15.9993 18.666C17.466 18.666 18.666 17.466 18.666 15.9993C18.666 14.5327 17.466 13.3327 15.9993 13.3327Z" fill="#1355FF"/>
<path d="M40 16.5646C40 20.5529 42.8543 23.1787 47.1988 23.1787C51.5686 23.1787 54.4229 20.4043 54.4229 16.5646C54.4229 12.7498 51.5686 10.0249 47.1988 10.0249C42.8543 10.0249 40 12.5764 40 16.5646ZM43.2837 16.5646C43.2837 14.5333 44.3951 12.9479 47.1988 12.9479C50.0025 12.9479 51.1392 14.5333 51.1392 16.5646C51.1392 18.5959 50.0025 20.2556 47.1988 20.2556C44.4203 20.2556 43.2837 18.5959 43.2837 16.5646Z" fill="#061237"/>
<path d="M59.0064 21.8162C59.0064 21.073 58.5517 20.206 58.3244 19.4876L58.8548 19.3142C59.1074 20.0078 59.2337 21.0235 59.7642 21.5437C60.6987 22.5098 62.0122 23.1538 63.6793 23.1538C67.3418 23.1538 69.893 20.1069 69.994 16.5398C70.0698 12.8735 67.4681 10 63.6793 10C61.9869 10 60.6735 10.5698 59.7389 11.5359C59.2337 12.0561 59.1074 13.0717 58.8548 13.7901L58.3244 13.6167C58.577 12.8983 59.0064 12.0313 59.0064 11.2881V10.3964L55.8995 10.4211V29L59.0064 28.9752V21.8162ZM63.2499 12.824C65.6242 12.824 66.8872 14.4094 66.8872 16.4902C66.8872 18.5958 65.6242 20.3299 63.2499 20.3299C60.9008 20.3299 59.5621 18.5958 59.5621 16.4902C59.5621 14.4094 60.9008 12.824 63.2499 12.824Z" fill="#061237"/>
<path d="M79.4825 22.0144C79.9877 21.5438 80.1645 20.652 80.3918 20.0079L80.9223 20.2061C80.6949 20.8502 80.2403 21.6181 80.215 22.2869V22.7824H83.2966V10.3965H80.215V16.9362C80.215 19.3886 78.6995 20.4786 76.8556 20.4786C75.1632 20.4786 73.9761 19.5125 73.9761 16.9362V10.3965H70.8692V18.8932C70.8692 21.6924 73.2688 23.1539 75.7442 23.1539C77.4871 23.1539 78.4469 23.0053 79.4825 22.0144Z" fill="#061237"/>
<path d="M97 18.7693C97 13.7406 87.7805 15.4499 87.7805 13.6663C87.7805 12.8736 88.9929 12.5021 90.3822 12.5021C92.4281 12.5021 93.6153 13.1214 93.6153 13.9141H96.7222C96.7222 12.18 95.0298 10.0249 90.559 10.0249C86.568 10.0249 84.6736 11.7589 84.6736 13.6911C84.6736 18.15 93.8426 16.5399 93.8426 18.9675C93.8426 19.6611 93.2112 20.33 91.2915 20.33C88.9171 20.33 87.6794 19.2152 87.6794 18.5712H84.5726C84.5726 20.652 86.6186 23.1787 90.9631 23.1787C95.0803 23.1787 97 21.1722 97 18.7693Z" fill="#061237"/>
</svg>
